<svg width="64" height="64" viewBox="0 0 64 64" fill="none" xmlns="http://www.w3.org/2000/svg">
<path d="M62.75 28.2349V31.9999C62.75 34.0799 61.065 35.7649 58.985 35.7649H50.1987V34.5049C50.1987 33.8149 49.6387 33.2549 48.9487 33.2549H15.0513C14.3613 33.2549 13.8013 33.8149 13.8013 34.5049V35.7649H5.015C2.935 35.7649 1.25 34.0799 1.25 31.9999V28.2349H62.75Z" fill="#70C6F8"/>
<path d="M58.985 8.15234H50.1987V11.9236C50.1987 12.6136 49.6387 13.1736 48.9487 13.1736H15.0513C14.3613 13.1736 13.8013 12.6136 13.8013 11.9236V8.15234H5.015C2.935 8.15234 1.25 9.83859 1.25 11.9186V28.2348H62.75V11.9186C62.75 9.83859 61.065 8.15234 58.985 8.15234Z" fill="#8FD8FB"/>
<path d="M55.22 18.1938C56.6062 18.1938 57.73 19.3176 57.73 20.7038C57.73 22.0901 56.6062 23.2138 55.22 23.2138C53.8325 23.2138 52.7087 22.0901 52.7087 20.7038C52.7087 19.3176 53.8325 18.1938 55.22 18.1938Z" fill="#F3E872"/>
<path d="M50.1988 37.0249C50.1988 37.7161 49.6388 38.2749 48.9488 38.2749H15.0513C14.3613 38.2749 13.8013 37.7161 13.8013 37.0249C13.8013 36.1435 13.8013 35.3863 13.8013 34.5049C13.8013 33.8149 14.3613 33.2549 15.0513 33.2549H48.9488C49.6388 33.2549 50.1988 33.8149 50.1988 34.5049V37.0249Z" fill="#8FACE0"/>
<path d="M50.1988 8.15234V11.9236C50.1988 12.6136 49.6388 13.1736 48.9488 13.1736H15.0513C14.3613 13.1736 13.8013 12.6136 13.8013 11.9236V8.15234H50.1988Z" fill="#8FACE0"/>
<path d="M45.1788 23.2138C46.565 23.2138 47.6888 22.0901 47.6888 20.7038C47.6888 19.3176 46.565 18.1938 45.1788 18.1938C43.7925 18.1938 42.6688 19.3176 42.6688 20.7038C42.6688 22.0901 43.7925 23.2138 45.1788 23.2138Z" fill="#E06E7E"/>
<path d="M19.449 57.0969C17.3756 57.0969 15.6887 55.4101 15.6887 53.3368C15.6887 52.6465 16.2485 52.0868 16.9387 52.0868C17.629 52.0868 18.1887 52.6465 18.1887 53.3368C18.1887 54.0316 18.754 54.5969 19.449 54.5969C20.144 54.5969 20.7092 54.0316 20.7092 53.3368V43.2959C20.7092 42.6056 21.269 42.0459 21.9592 42.0459C22.6495 42.0459 23.2092 42.6056 23.2092 43.2959V53.3368C23.2092 55.4101 21.5223 57.0969 19.449 57.0969Z" fill="#70C6F8"/>
<path d="M44.551 57.0969C42.4776 57.0969 40.7908 55.4101 40.7908 53.3368V43.2959C40.7908 42.6056 41.3505 42.0459 42.0408 42.0459C42.731 42.0459 43.2908 42.6056 43.2908 43.2959V53.3368C43.2908 54.0316 43.856 54.5969 44.551 54.5969C45.246 54.5969 45.8113 54.0316 45.8113 53.3368C45.8113 52.6465 46.371 52.0868 47.0613 52.0868C47.7515 52.0868 48.3113 52.6465 48.3113 53.3368C48.3113 55.4101 46.6244 57.0969 44.551 57.0969Z" fill="#70C6F8"/>
<path d="M26.9796 49.5663C26.2894 49.5663 25.7296 49.0065 25.7296 48.3163V43.2959C25.7296 42.6056 26.2894 42.0459 26.9796 42.0459C27.6699 42.0459 28.2296 42.6056 28.2296 43.2959V48.3163C28.2296 49.0066 27.6699 49.5663 26.9796 49.5663Z" fill="#70C6F8"/>
<path d="M37.0204 49.5663C36.3301 49.5663 35.7704 49.0065 35.7704 48.3163V43.2959C35.7704 42.6056 36.3301 42.0459 37.0204 42.0459C37.7106 42.0459 38.2704 42.6056 38.2704 43.2959V48.3163C38.2704 49.0066 37.7108 49.5663 37.0204 49.5663Z" fill="#70C6F8"/>
<path d="M32 53.3316C31.3098 53.3316 30.75 52.7719 30.75 52.0816V43.2959C30.75 42.6056 31.3098 42.0459 32 42.0459C32.6902 42.0459 33.25 42.6056 33.25 43.2959V52.0816C33.25 52.772 32.6902 53.3316 32 53.3316Z" fill="#70C6F8"/>
</svg>
