<svg width="64" height="64" viewBox="0 0 64 64" fill="none" xmlns="http://www.w3.org/2000/svg">
<path d="M50.1227 58.1654C50.304 60.7467 48.2347 62.9334 45.6213 62.9334H7.71199C5.09866 62.9334 3.02932 60.7467 3.21066 58.1654L3.86132 48.9494C4.25599 44.4587 7.16799 40.5974 11.3387 39.0081L19.0507 36.0534L19.2 36.2667C19.9253 37.4081 20.8747 38.4747 22.1013 39.2534C23.328 40.0427 24.832 40.5334 26.6667 40.5334C30.3467 40.5334 32.672 38.5494 34.1333 36.2667L34.272 36.0427L41.9947 39.0081C46.1653 40.5974 49.0773 44.4587 49.472 48.9494L50.1227 58.1654Z" fill="#C14A4A"/>
<path d="M34.272 36.0427L34.1333 36.2667C32.672 38.5493 30.3467 40.5333 26.6667 40.5333C24.832 40.5333 23.328 40.0427 22.1013 39.2533C20.8747 38.4747 19.9253 37.408 19.2 36.2667L19.0507 36.0533L19.4027 35.9147C20.5227 35.488 21.2587 34.4107 21.2587 33.2267V32H32.0747V33.2267C32.0747 34.4107 32.8107 35.488 33.9307 35.9147L34.272 36.0427Z" fill="#F2BDAB"/>
<path d="M37.8773 18.624C38.7733 19.1574 39.4027 20.0747 39.4667 21.1627V21.3334C39.4667 23.104 38.0373 24.5334 36.2667 24.5334C36.2667 30.304 32.128 34.1334 26.6667 34.1334C21.2053 34.1334 17.0667 30.304 17.0667 24.5334C15.296 24.5334 13.8667 23.104 13.8667 21.3334V21.1627C13.9307 20.0747 14.56 19.1574 15.456 18.624H37.8773Z" fill="#FACBB6"/>
<path d="M37.3333 14.9333V9.91999C37.3333 6.01599 34.176 2.84799 30.2827 2.82666H23.0507C19.1573 2.84799 16 6.01599 16 9.91999V14.9333H37.3333Z" fill="#E59619"/>
<path d="M39.4667 12.8V15.2C39.4667 17.3429 37.9552 19.1861 35.8517 19.5968C33.9424 19.9691 31.0539 20.2667 26.6667 20.2667C22.2795 20.2667 19.3909 19.9691 17.4816 19.5968C15.3781 19.1861 13.8667 17.3429 13.8667 15.2V12.8C13.8667 12.2133 14.3467 11.7333 14.9333 11.7333H16.4053C16.8149 11.7333 17.1893 11.9659 17.3717 12.3328C17.9179 13.4325 19.2811 13.8901 20.3509 13.2875C21.6501 12.5557 22.5525 11.1989 22.6453 9.61065L23.0507 2.80532C23.0933 2.01598 23.68 1.36532 24.4587 1.23732C25.12 1.13065 25.856 1.06665 26.6667 1.06665C27.4773 1.06665 28.2133 1.13065 28.8747 1.23732C29.6533 1.36532 30.24 2.01598 30.2827 2.80532L30.688 9.61065C30.7627 10.8053 31.2853 11.872 32.096 12.6293C32.3595 12.8789 32.6539 13.0976 32.9717 13.2779C34.0459 13.888 35.4187 13.4261 35.968 12.32C36.1461 11.9605 36.5131 11.7333 36.9141 11.7333H38.4C38.9867 11.7333 39.4667 12.2133 39.4667 12.8Z" fill="#FEB91C"/>
<path d="M19.2 35.9893V50.1333H13.8667V38.0373L19.2 35.9893Z" fill="#E59619"/>
<path d="M39.4667 38.0373V50.1333H34.1333V35.9893L39.4667 38.0373Z" fill="#E59619"/>
<path d="M11.7333 62.9333V50.1333C11.7333 49.5445 12.2112 49.0667 12.8 49.0667H40.5333C41.1221 49.0667 41.6 49.5445 41.6 50.1333V62.9333H11.7333Z" fill="#FEB91C"/>
<path d="M46.9333 44.8V17.0667C46.9333 15.8933 47.8933 14.9333 49.0667 14.9333H53.952C54.0587 14.9333 54.1547 15.0187 54.1547 15.136C54.1547 15.5627 52.96 16.544 52.96 16.544C52.8534 16.6613 52.8747 16.8534 53.0027 16.9494L54.4854 18.048C54.6134 18.1333 54.6347 18.304 54.5493 18.432L53.4507 19.9573C53.3654 20.0747 53.3867 20.2453 53.5147 20.3413L55.0187 21.4507C55.1467 21.5467 55.168 21.7173 55.0827 21.8453L53.984 23.36C53.888 23.488 53.92 23.6587 54.0373 23.744L55.552 24.864C55.68 24.96 55.7013 25.1307 55.616 25.248L54.5174 26.7734C54.4214 26.9014 54.4534 27.072 54.5707 27.1573L56.0854 28.2774C56.2134 28.3627 56.2347 28.544 56.1493 28.6614L55.0507 30.1867C54.9547 30.3147 54.9867 30.4854 55.104 30.5707L56.6187 31.6907C56.7467 31.776 56.768 31.9573 56.6827 32.0747L55.584 33.6C55.488 33.7174 55.52 33.888 55.6374 33.984L57.152 35.0934C57.2694 35.1894 57.3013 35.36 57.216 35.4773L56.1174 37.0027C56.0214 37.1307 56.0533 37.3014 56.1707 37.3974L57.6854 38.5067C57.8027 38.6027 57.8347 38.7733 57.7493 38.8907L56.6507 40.416C56.5547 40.544 56.5867 40.7147 56.704 40.8107L58.336 42.016C58.4 42.0587 58.4427 42.1334 58.4533 42.208L59.1254 49.184L46.9333 44.8Z" fill="#D8D8D8"/>
<path d="M56.5333 57.6001H57.6V61.8668L56.5333 62.9334H50.1333L49.0667 61.8668V57.6001H50.1333C50.1333 58.1868 50.6133 58.6668 51.2 58.6668H55.4667C56.0533 58.6668 56.5333 58.1868 56.5333 57.6001Z" fill="#3A404C"/>
<path d="M60.3093 50.6027L56.1067 45.5681C55.7013 45.0774 55.104 44.8 54.464 44.8H46.9333C46.3467 44.8 45.8667 45.28 45.8667 45.8667V60.8C45.8667 61.9734 46.8267 62.9334 48 62.9334H50.1333V50.1334C50.1333 49.5467 50.6133 49.0667 51.2 49.0667H52.9707C53.28 49.0667 53.5893 49.2054 53.792 49.4507L56.288 52.448C56.448 52.64 56.5333 52.8854 56.5333 53.1307V62.9334H58.6667C59.84 62.9334 60.8 61.9734 60.8 60.8V51.968C60.8 51.4774 60.6293 50.9867 60.3093 50.6027Z" fill="#FEB91C"/>
<path d="M22.3285 16.9407C23.568 17.0239 25.0272 17.0665 26.6667 17.0665C28.3061 17.0665 29.7653 17.0239 31.0048 16.9407C31.5925 16.9001 32.0373 16.3913 31.9979 15.8047C31.9573 15.2169 31.4528 14.802 30.8619 14.8116C29.6704 14.8927 28.2592 14.9332 26.6667 14.9332C25.0741 14.9332 23.664 14.8927 22.4715 14.8116C21.8891 14.7977 21.376 15.2169 21.3355 15.8047C21.296 16.3924 21.7408 16.9001 22.3285 16.9407Z" fill="#161616"/>
</svg>
