<svg width="64" height="64" viewBox="0 0 64 64" fill="none" xmlns="http://www.w3.org/2000/svg">
<path d="M40.5334 60.8H10.6666L6.40002 27.7334H44.8L40.5334 60.8Z" fill="#4398D1"/>
<path d="M48 23.4666H3.20001V27.7332H48V23.4666Z" fill="#4398D1"/>
<path d="M6.40002 27.7334L6.9504 32H44.2496L44.8 27.7334H6.40002Z" fill="#398CC4"/>
<path d="M23.4666 23.4667H8.53339V13.8667L12.8 8.53345H19.2L23.4666 13.8667V23.4667Z" fill="#726891"/>
<path d="M19.2 1.06665H12.8V8.53328H19.2V1.06665Z" fill="#E8594A"/>
<path d="M23.4668 13.8667H8.53339V23.4667H23.4668V13.8667Z" fill="#7A709C"/>
<path d="M42.7784 14.3431L44.687 13.3904L40.3331 4.66795L38.4245 5.62066L42.7784 14.3431Z" fill="#E66712"/>
<path d="M46.9333 1.06665H42.6666V5.33328H46.9333V1.06665Z" fill="#F77219"/>
<path d="M37.3334 9.60003H27.7334C27.7334 4.88753 31.5541 1.06665 36.2668 1.06665H42.6668V5.33328L37.3334 9.60003Z" fill="#F77219"/>
<path d="M37.3333 9.6001H30.9333V13.8667H37.3333V9.6001Z" fill="#D4D4D4"/>
<path d="M30.9334 13.8667H37.3334L42.6666 19.2001V23.4667H27.7334V17.0667L30.9334 13.8667Z" fill="#EBEBEB"/>
<path d="M55.4666 45.8667H53.7963C52.7904 45.8667 51.7984 46.1013 50.8981 46.5504C49.0741 47.4636 46.9259 47.4636 45.1019 46.5504C44.2016 46.1014 43.2096 45.8667 42.2038 45.8667H40.5334C37.5883 45.8667 35.2 48.2549 35.2 51.2001V57.6001C35.2 60.5452 37.5883 62.9334 40.5334 62.9334H42.2038C43.2096 62.9334 44.2016 62.6988 45.1019 62.2497C46.9259 61.3366 49.0741 61.3366 50.8981 62.2497C51.7984 62.6988 52.7904 62.9334 53.7963 62.9334H55.4666C58.4118 62.9334 60.8 60.5452 60.8 57.6001V51.2001C60.8 48.2549 58.4118 45.8667 55.4666 45.8667Z" fill="#F5A338"/>
<path d="M55.4666 56.5334H53.7963C52.7904 56.5334 51.7984 56.2988 50.8981 55.8497C49.0741 54.9366 46.9259 54.9366 45.1019 55.8497C44.2016 56.2987 43.2096 56.5334 42.2038 56.5334H40.5334C37.5883 56.5334 35.2 54.1452 35.2 51.2001C35.2 48.2549 37.5883 45.8667 40.5334 45.8667H42.2038C43.2096 45.8667 44.2016 46.1013 45.1019 46.5504C46.9259 47.4636 49.0741 47.4636 50.8981 46.5504C51.7984 46.1014 52.7904 45.8667 53.7963 45.8667H55.4666C58.4118 45.8667 60.8 48.2549 60.8 51.2001C60.8 54.1452 58.4118 56.5334 55.4666 56.5334Z" fill="#F9B44D"/>
<path d="M56.5333 49.0667H54.4V51.2H56.5333V49.0667Z" fill="#F5A338"/>
<path d="M45.8667 49.0667H43.7333V51.2H45.8667V49.0667Z" fill="#F5A338"/>
<path d="M41.6 50.1335H39.4666V52.2669H41.6V50.1335Z" fill="#F5A338"/>
<path d="M52.2667 50.1335H50.1334V52.2669H52.2667V50.1335Z" fill="#F5A338"/>
<path d="M30.9334 31.9999V23.4666H13.8666V47.9999C13.8666 49.7674 15.2991 51.1999 17.0666 51.1999H27.7333C29.5008 51.1999 30.9333 49.7674 30.9333 47.9999V37.3333L35.2639 39.4987C36.4063 40.0704 37.7951 39.6074 38.3668 38.4662C38.3668 38.4651 38.3679 38.4651 38.3679 38.4641L38.3945 38.4107C38.9919 37.2384 38.5246 35.8038 37.3534 35.2074C37.3491 35.2053 37.3438 35.2021 37.3385 35.1999L30.9334 31.9999Z" fill="#97D3E6"/>
<path d="M37.3386 35.1999L30.9334 31.9999V23.4666H30.1249C26.2529 36.1972 19.4582 43.9774 13.9115 48.4703C14.1409 50.0372 15.4837 51.1988 17.0667 51.1999H27.7334C29.5009 51.1999 30.9334 49.7674 30.9334 47.9999V37.3333L35.264 39.4987C36.4064 40.0704 37.7952 39.6074 38.3669 38.4662C38.3669 38.4651 38.368 38.4651 38.368 38.4641L38.3946 38.4107C38.992 37.2384 38.5247 35.8038 37.3535 35.2074C37.3482 35.2053 37.344 35.2021 37.3386 35.1999Z" fill="#8AC9DE"/>
<path d="M19.2 40.5334H17.0667V51.2001H19.2V40.5334Z" fill="#7DBDD1"/>
<path d="M23.4667 40.5334H21.3334V51.2001H23.4667V40.5334Z" fill="#7DBDD1"/>
<path d="M27.7334 40.5334H25.6V51.2001H27.7334V40.5334Z" fill="#7DBDD1"/>
<path d="M56.5334 49.0667H54.4V51.2H56.5334V49.0667Z" fill="black"/>
<path d="M45.8668 49.0667H43.7334V51.2H45.8668V49.0667Z" fill="black"/>
<path d="M41.6 50.1333H39.4666V52.2667H41.6V50.1333Z" fill="black"/>
<path d="M52.2667 50.1333H50.1334V52.2667H52.2667V50.1333Z" fill="black"/>
</svg>
