<svg width="64" height="64" viewBox="0 0 64 64" fill="none" xmlns="http://www.w3.org/2000/svg">
<path d="M19.789 42.113L19.16 47.146L6.95703 50.735C4.11303 51.571 2.16003 54.181 2.16003 57.146V62.146H50.16V57.146C50.16 54.182 48.207 51.572 45.363 50.735L33.16 47.146L32.531 42.113H19.789Z" fill="#ECB8AD"/>
<path d="M45.363 50.7351L33.16 47.1461L32.644 43.0181C30.824 44.3501 28.588 45.1461 26.16 45.1461C23.732 45.1461 21.496 44.3501 19.676 43.0181L19.16 47.1461L6.95703 50.7351C4.11303 51.5711 2.16003 54.1811 2.16003 57.1461V62.1461H50.16V57.1461C50.16 54.1821 48.207 51.5721 45.363 50.7351Z" fill="#FDE1D5"/>
<path d="M45.363 50.7351L35.339 47.7871L34.843 48.7791C33.199 52.0681 29.837 54.1461 26.16 54.1461C22.483 54.1461 19.121 52.0681 17.477 48.7791L16.981 47.7871L6.95703 50.7351C4.11303 51.5711 2.16003 54.1811 2.16003 57.1461V62.1461H50.16V57.1461C50.16 54.1821 48.207 51.5721 45.363 50.7351Z" fill="#89C683"/>
<path d="M50.16 57.1461C50.16 54.1821 48.207 51.5721 45.363 50.7351L35.339 47.7871L34.843 48.7791C33.199 52.0681 29.837 54.1461 26.16 54.1461C22.483 54.1461 19.121 52.0681 17.477 48.7791L16.981 47.7871L6.95703 50.7351C6.90103 50.7511 6.85103 50.7791 6.79603 50.7971C5.77603 51.9811 5.16003 53.5021 5.16003 55.1461C5.16003 57.9071 7.39903 60.1461 10.16 60.1461H50.16V57.1461Z" fill="#A7D8A1"/>
<path d="M12.16 26.91V24.145C12.16 21.936 10.369 20.145 8.16003 20.145L10.67 14.497C11.576 12.459 13.597 11.145 15.827 11.145C16.703 11.145 17.567 11.349 18.351 11.741L21.159 13.145L19.987 11.973C18.176 10.162 15.72 9.145 13.159 9.145L16.613 6.382C17.614 5.581 18.857 5.145 20.139 5.145C22.026 5.145 23.788 6.088 24.835 7.658L27.16 11.145C27.16 7.944 25.888 4.873 23.624 2.609L23.16 2.146H27.331C29.142 2.146 30.879 2.865 32.159 4.146C33.44 5.427 34.16 7.164 34.16 8.976V10.147L34.664 9.811C36.223 8.771 37.16 7.021 37.16 5.147L37.818 6.464C38.7 8.229 39.16 10.174 39.16 12.147C40.441 12.147 41.669 11.638 42.574 10.733L43.16 10.147C43.16 12.743 42.318 15.27 40.76 17.347L40.16 18.147L43.16 16.147C43.16 18.784 42.607 21.392 41.535 23.802L40.154 26.908L12.16 26.91Z" fill="#672A0D"/>
<path d="M43.16 10.146L42.574 10.732C41.668 11.638 40.44 12.146 39.16 12.146C39.16 10.173 38.701 8.22702 37.818 6.46302L37.16 5.14602C37.16 7.02002 36.223 8.77002 34.664 9.81002L34.16 10.146V8.97502C34.16 7.16302 33.44 5.42602 32.159 4.14502C30.878 2.86502 29.141 2.14502 27.331 2.14502H23.16L23.624 2.60902C25.888 4.87302 27.16 7.94302 27.16 11.145L24.835 7.65802C23.788 6.08802 22.026 5.14502 20.139 5.14502C18.858 5.14502 17.614 5.58102 16.613 6.38202L13.16 9.14602C15.721 9.14602 18.177 10.163 19.988 11.974L21.16 13.146L18.352 11.742C17.87 11.501 17.356 11.34 16.829 11.245C15.01 11.573 13.438 12.77 12.67 14.498L10.16 20.146C12.369 20.146 14.16 21.937 14.16 24.146V26.91L40.155 26.907L41.536 23.801C42.607 21.391 43.161 18.783 43.161 16.146L40.161 18.146L40.761 17.346C42.318 15.269 43.16 12.742 43.16 10.146Z" fill="#893B1B"/>
<path d="M15.16 26.146H14.16C12.503 26.146 11.16 27.489 11.16 29.146V31.146C11.16 32.803 12.503 34.146 14.16 34.146H15.205" fill="#ECB8AD"/>
<path d="M37.16 26.146H38.16C39.817 26.146 41.16 27.489 41.16 29.146V31.146C41.16 32.803 39.817 34.146 38.16 34.146H37.115" fill="#ECB8AD"/>
<path d="M10.16 57.146H12.16V62.146H10.16V57.146Z" fill="#6BB566"/>
<path d="M40.16 57.146H42.16V62.146H40.16V57.146Z" fill="#6BB566"/>
<path d="M38.16 46.146H60.16V50.146H38.16V46.146Z" fill="#B4B4B4"/>
<path d="M59.16 50.146C60.952 50.743 62.16 52.42 62.16 54.308V60.146C62.16 61.251 61.265 62.146 60.16 62.146H38.16C37.055 62.146 36.16 61.251 36.16 60.146V54.308C36.16 52.42 37.368 50.743 39.16 50.146" fill="#3C82C2"/>
<path d="M40.16 46.146V44.573C40.16 43.233 41.247 42.146 42.587 42.146C42.964 42.146 43.335 42.058 43.672 41.89C45.809 40.821 47.16 38.637 47.16 36.247V36.146L49.21 36.439C52.05 36.845 54.16 39.277 54.16 42.146C56.369 42.146 58.16 43.937 58.16 46.146" fill="#FFD992"/>
<path d="M8.16003 20.146C8.63203 20.146 9.07703 20.242 9.49803 20.392L11.801 18.666C12.899 17.842 14.617 18.088 15.441 19.186L16.92 21.4L18.604 20.32L17.474 18.565L17.04 17.987C16.176 16.835 14.8 16.146 13.36 16.146C12.371 16.146 11.39 16.473 10.6 17.067L8.99403 18.271L8.16003 20.146Z" fill="#672A0D"/>
<path d="M37.16 25.122V33.146C37.16 39.221 32.235 44.146 26.16 44.146C20.085 44.146 15.16 39.221 15.16 33.146V23.146C15.16 19.832 17.846 17.146 21.16 17.146C23.155 17.146 25.145 16.949 27.102 16.558L28.478 16.283C28.932 16.192 29.394 16.146 29.857 16.146C32.996 16.146 35.755 18.227 36.618 21.246C36.977 22.506 37.16 23.811 37.16 25.122Z" fill="#ECB8AD"/>
<path d="M37.1601 33.146V25.122C37.1601 23.811 36.9771 22.506 36.6171 21.245C36.1701 19.682 35.2091 18.379 33.9561 17.477C33.2881 17.267 32.5841 17.145 31.8561 17.145C31.3931 17.145 30.9311 17.191 30.4771 17.282L29.1011 17.557C27.1451 17.948 25.1541 18.145 23.1591 18.145C19.8451 18.145 17.1591 20.831 17.1591 24.145V34.145C17.1591 38.05 19.2001 41.471 22.2671 43.423C23.4791 43.882 24.7871 44.145 26.1591 44.145C32.2351 44.146 37.1601 39.221 37.1601 33.146Z" fill="#FDE1D5"/>
<path d="M59.16 50.146H39.16C38.969 50.21 38.789 50.291 38.612 50.378C38.323 50.966 38.16 51.622 38.16 52.308V58.146C38.16 59.251 39.055 60.146 40.16 60.146H62.16V54.308C62.16 52.42 60.951 50.743 59.16 50.146Z" fill="#56A0D9"/>
<path d="M42.16 48.146H60.16V46.146H40.16C40.16 47.25 41.055 48.146 42.16 48.146Z" fill="#C8C8C8"/>
<path d="M43.16 45.573V46.146H58.16C58.16 43.937 56.369 42.146 54.16 42.146C54.16 40.149 53.125 38.382 51.546 37.344L50.16 37.146V37.247C50.16 39.637 48.81 41.821 46.672 42.89C46.335 43.058 45.963 43.146 45.587 43.146C44.246 43.146 43.16 44.233 43.16 45.573Z" fill="#FFE1B2"/>
</svg>
