<svg width="176" height="34" viewBox="0 0 176 34" fill="none" xmlns="http://www.w3.org/2000/svg">
<path d="M7.652 7.372H13.476V15.212H20.448V7.372H26.272V27H20.448V19.692H13.476V27H7.652V7.372ZM38.6257 11.572C40.3244 11.572 41.8084 11.8987 43.0777 12.552C44.347 13.1867 45.327 14.092 46.0177 15.268C46.727 16.4253 47.0817 17.7973 47.0817 19.384C47.0817 20.952 46.727 22.324 46.0177 23.5C45.327 24.676 44.347 25.5907 43.0777 26.244C41.8084 26.8787 40.3244 27.196 38.6257 27.196C36.9084 27.196 35.415 26.8787 34.1457 26.244C32.8764 25.5907 31.887 24.676 31.1777 23.5C30.487 22.324 30.1417 20.952 30.1417 19.384C30.1417 17.7973 30.487 16.4253 31.1777 15.268C31.887 14.092 32.8764 13.1867 34.1457 12.552C35.415 11.8987 36.9084 11.572 38.6257 11.572ZM38.6257 16.052C38.0657 16.052 37.571 16.192 37.1417 16.472C36.731 16.752 36.4137 17.1533 36.1897 17.676C35.9657 18.18 35.8537 18.768 35.8537 19.44C35.8537 20.1307 35.9657 20.728 36.1897 21.232C36.4137 21.736 36.731 22.128 37.1417 22.408C37.571 22.688 38.0657 22.828 38.6257 22.828C39.1857 22.828 39.671 22.688 40.0817 22.408C40.4924 22.128 40.8097 21.736 41.0337 21.232C41.2577 20.728 41.3697 20.1307 41.3697 19.44C41.3697 18.768 41.2577 18.18 41.0337 17.676C40.8097 17.1533 40.4924 16.752 40.0817 16.472C39.671 16.192 39.1857 16.052 38.6257 16.052ZM61.1539 18.964C61.1539 18.1987 60.9579 17.6013 60.5659 17.172C60.1925 16.724 59.6885 16.5 59.0539 16.5C58.3259 16.5187 57.7379 16.7987 57.2899 17.34C56.8605 17.8813 56.6459 18.5907 56.6459 19.468H55.3579C55.3579 17.8067 55.6005 16.3787 56.0859 15.184C56.5712 13.9893 57.2619 13.084 58.1579 12.468C59.0725 11.852 60.1459 11.544 61.3779 11.544C62.4605 11.544 63.4032 11.7773 64.2059 12.244C65.0272 12.7107 65.6619 13.3827 66.1099 14.26C66.5765 15.1373 66.8099 16.164 66.8099 17.34V27H61.1539V18.964ZM71.2899 18.964C71.2899 18.1987 71.0939 17.6013 70.7019 17.172C70.3285 16.724 69.8245 16.5 69.1899 16.5C68.4619 16.5187 67.8832 16.7987 67.4539 17.34C67.0245 17.8813 66.8099 18.5907 66.8099 19.468H65.4939C65.4939 17.8067 65.7365 16.3787 66.2219 15.184C66.7072 13.9893 67.3979 13.084 68.2939 12.468C69.2085 11.852 70.2912 11.544 71.5419 11.544C72.6245 11.544 73.5672 11.7773 74.3699 12.244C75.1912 12.7107 75.8259 13.3827 76.2739 14.26C76.7219 15.1373 76.9459 16.164 76.9459 17.34V27H71.2899V18.964ZM50.9899 11.768H56.6459V27H50.9899V11.768ZM90.8389 17.984C90.8576 17.4613 90.7736 17.0133 90.5869 16.64C90.4002 16.248 90.1296 15.9493 89.7749 15.744C89.4202 15.52 89.0096 15.408 88.5429 15.408C87.9829 15.408 87.5069 15.576 87.1149 15.912C86.7416 16.2293 86.4522 16.668 86.2469 17.228C86.0416 17.788 85.9389 18.4227 85.9389 19.132C85.9389 19.9533 86.0696 20.6533 86.3309 21.232C86.6109 21.8107 86.9842 22.2587 87.4509 22.576C87.9362 22.8747 88.4962 23.024 89.1309 23.024C90.3629 23.024 91.4829 22.5387 92.4909 21.568L95.4309 24.452C94.6469 25.3293 93.6762 26.0107 92.5189 26.496C91.3802 26.9627 90.0922 27.196 88.6549 27.196C86.9562 27.196 85.4909 26.8787 84.2589 26.244C83.0456 25.5907 82.1029 24.6853 81.4309 23.528C80.7776 22.352 80.4509 20.9893 80.4509 19.44C80.4509 17.8533 80.7869 16.472 81.4589 15.296C82.1309 14.12 83.0642 13.2053 84.2589 12.552C85.4722 11.8987 86.8816 11.572 88.4869 11.572C90.2789 11.572 91.7816 11.9547 92.9949 12.72C94.2082 13.4667 95.1042 14.5307 95.6829 15.912C96.2802 17.2747 96.5229 18.8893 96.4109 20.756H85.1829V17.984H90.8389ZM114.509 14.512C113.893 13.6907 113.165 13.0467 112.325 12.58C111.485 12.0947 110.655 11.852 109.833 11.852C109.18 11.852 108.564 11.9827 107.985 12.244C107.425 12.5053 106.931 12.8693 106.501 13.336C106.072 13.8027 105.736 14.3533 105.493 14.988C105.269 15.6227 105.157 16.3133 105.157 17.06C105.157 17.8067 105.269 18.5067 105.493 19.16C105.736 19.7947 106.072 20.3453 106.501 20.812C106.931 21.2787 107.425 21.6427 107.985 21.904C108.564 22.1653 109.18 22.296 109.833 22.296C110.599 22.296 111.401 22.0907 112.241 21.68C113.1 21.2507 113.856 20.6907 114.509 20L117.869 23.584C117.16 24.3493 116.348 25.0213 115.433 25.6C114.519 26.1787 113.557 26.6267 112.549 26.944C111.541 27.2427 110.543 27.392 109.553 27.392C108.041 27.392 106.66 27.14 105.409 26.636C104.159 26.1133 103.067 25.3947 102.133 24.48C101.2 23.5653 100.472 22.4827 99.9494 21.232C99.4454 19.9627 99.1934 18.5907 99.1934 17.116C99.1934 15.66 99.4547 14.3253 99.9774 13.112C100.5 11.88 101.237 10.8067 102.189 9.892C103.16 8.97733 104.28 8.268 105.549 7.764C106.837 7.26 108.237 7.008 109.749 7.008C110.757 7.008 111.756 7.15733 112.745 7.456C113.735 7.736 114.668 8.13733 115.545 8.66C116.441 9.18267 117.216 9.79867 117.869 10.508L114.509 14.512ZM127.043 20.616C126.483 20.616 126.053 20.7373 125.755 20.98C125.475 21.204 125.335 21.5587 125.335 22.044C125.335 22.5107 125.484 22.884 125.783 23.164C126.081 23.4253 126.501 23.556 127.043 23.556C127.435 23.556 127.799 23.4907 128.135 23.36C128.471 23.2293 128.769 23.052 129.031 22.828C129.292 22.5853 129.488 22.3053 129.619 21.988L130.319 24.004C129.945 25.0307 129.32 25.8333 128.443 26.412C127.565 26.972 126.473 27.252 125.167 27.252C124.084 27.252 123.16 27.056 122.395 26.664C121.629 26.2533 121.041 25.6933 120.631 24.984C120.22 24.256 120.015 23.416 120.015 22.464C120.015 20.9893 120.519 19.86 121.527 19.076C122.535 18.2733 123.991 17.8627 125.895 17.844H130.123V20.616H127.043ZM129.619 17.788C129.619 17.1533 129.395 16.6587 128.947 16.304C128.499 15.9493 127.845 15.772 126.987 15.772C126.371 15.772 125.661 15.8653 124.859 16.052C124.056 16.2387 123.235 16.5093 122.395 16.864L120.995 13.112C121.835 12.776 122.665 12.4867 123.487 12.244C124.308 12.0013 125.12 11.824 125.923 11.712C126.744 11.6 127.547 11.544 128.331 11.544C130.477 11.544 132.148 12.0293 133.343 13C134.556 13.9707 135.163 15.3427 135.163 17.116V27H129.619V17.788ZM150.295 16.64C149.324 16.5093 148.475 16.556 147.747 16.78C147.037 17.004 146.487 17.368 146.095 17.872C145.703 18.3573 145.507 18.9733 145.507 19.72L144.219 19.468C144.219 17.844 144.461 16.4347 144.947 15.24C145.451 14.0453 146.16 13.1307 147.075 12.496C147.989 11.8613 149.063 11.544 150.295 11.544V16.64ZM139.851 11.768H145.507V27H139.851V11.768ZM163.184 17.984C163.203 17.4613 163.119 17.0133 162.932 16.64C162.745 16.248 162.475 15.9493 162.12 15.744C161.765 15.52 161.355 15.408 160.888 15.408C160.328 15.408 159.852 15.576 159.46 15.912C159.087 16.2293 158.797 16.668 158.592 17.228C158.387 17.788 158.284 18.4227 158.284 19.132C158.284 19.9533 158.415 20.6533 158.676 21.232C158.956 21.8107 159.329 22.2587 159.796 22.576C160.281 22.8747 160.841 23.024 161.476 23.024C162.708 23.024 163.828 22.5387 164.836 21.568L167.776 24.452C166.992 25.3293 166.021 26.0107 164.864 26.496C163.725 26.9627 162.437 27.196 161 27.196C159.301 27.196 157.836 26.8787 156.604 26.244C155.391 25.5907 154.448 24.6853 153.776 23.528C153.123 22.352 152.796 20.9893 152.796 19.44C152.796 17.8533 153.132 16.472 153.804 15.296C154.476 14.12 155.409 13.2053 156.604 12.552C157.817 11.8987 159.227 11.572 160.832 11.572C162.624 11.572 164.127 11.9547 165.34 12.72C166.553 13.4667 167.449 14.5307 168.028 15.912C168.625 17.2747 168.868 18.8893 168.756 20.756H157.528V17.984H163.184Z" fill="#3A3A3A"/>
<path d="M38.5 28C43.1944 28 47 24.1944 47 19.5C47 14.8056 43.1944 11 38.5 11C33.8056 11 30 14.8056 30 19.5C30 24.1944 33.8056 28 38.5 28Z" fill="#4540E1"/>
<path d="M38.5 24C40.9853 24 43 21.9853 43 19.5C43 17.0147 40.9853 15 38.5 15C36.0147 15 34 17.0147 34 19.5C34 21.9853 36.0147 24 38.5 24Z" fill="white"/>
</svg>
