<svg width="64" height="64" viewBox="0 0 64 64" fill="none" xmlns="http://www.w3.org/2000/svg">
<path d="M54.5662 60.3868V58.5653C54.5662 55.0695 52.2709 51.9885 48.9214 50.9879L39.6464 48.2174C38.0322 47.7353 36.9262 46.2504 36.9262 44.5658V36.1548H25.4092V44.5657C25.4092 46.2503 24.303 47.7352 22.6889 48.2173L13.4139 50.9878C10.0644 51.9883 7.76917 55.0693 7.76917 58.5652V60.3867C7.76917 61.8643 8.96704 63.0622 10.4447 63.0622H51.8907C53.3683 63.0623 54.5662 61.8644 54.5662 60.3868Z" fill="#FFE8C8"/>
<path d="M25.4092 36.1548V44.5657C25.4092 46.2503 24.303 47.7352 22.6889 48.2173L13.4139 50.9878C10.0644 51.9883 7.76917 55.0693 7.76917 58.5652V60.3868C7.76917 61.8644 8.96704 63.0623 10.4447 63.0623H11.3245C11.254 62.8225 11.2145 62.5694 11.2145 62.3068V60.4853C11.2145 56.9895 13.5098 53.9085 16.8593 52.9079L26.1343 50.1374C27.7485 49.6553 28.8545 48.5298 28.8545 47.3533V47.3335C28.8545 46.346 29.6768 45.5474 30.6629 45.5978C30.8863 45.6092 31.1102 45.6149 31.3342 45.6149C33.2662 45.6149 35.1759 45.196 36.926 44.3963V36.1548H25.4092Z" fill="#FAB684"/>
<path d="M18.6125 57.7549H44.8332V63.0624H18.6125V57.7549Z" fill="#ECF4FF"/>
<path d="M18.6125 57.7549H21.4339V63.0624H18.6125V57.7549Z" fill="#CBE2FF"/>
<path d="M13.6458 25.131H48.6893V18.4592C48.6893 8.78225 40.8445 0.9375 31.1675 0.9375C21.4905 0.9375 13.6458 8.78225 13.6458 18.4592V25.131Z" fill="#ECF4FF"/>
<path d="M32.8874 1.02163C32.3215 0.9665 31.7479 0.9375 31.1675 0.9375C21.4905 0.9375 13.6458 8.78225 13.6458 18.4592V25.131H17.0855V18.4592C17.0855 9.36262 24.0178 1.88588 32.8874 1.02163Z" fill="#CBE2FF"/>
<path d="M17.0855 28.7834H14.3552C12.8308 28.7834 11.5951 27.5476 11.5951 26.0233V24.2386C11.5951 22.7143 12.8308 21.4785 14.3552 21.4785H17.0855V28.7834Z" fill="#FAB684"/>
<path d="M45.2495 21.4785H47.9798C49.5041 21.4785 50.7399 22.7143 50.7399 24.2386V26.0233C50.7399 27.5476 49.5041 28.7834 47.9798 28.7834H45.2495V21.4785Z" fill="#FAB684"/>
<path d="M37.4437 41.281L36.8155 41.6442C33.4767 43.5754 29.3679 43.607 25.9997 41.7276L25.1175 41.2354C19.7768 38.2554 16.467 32.6185 16.467 26.5026V23.5085C16.467 15.3896 23.0487 8.80786 31.1677 8.80786C39.2865 8.80786 45.8683 15.3895 45.8683 23.5085V26.6766C45.8682 32.6996 42.6574 38.2657 37.4437 41.281Z" fill="#FFE8C8"/>
<path d="M29.445 41.7276L28.5629 41.2354C23.2222 38.2554 19.9124 32.6185 19.9124 26.5026V23.5085C19.9124 15.9725 25.5833 9.76199 32.8903 8.90886C32.3252 8.84286 31.7505 8.80786 31.1677 8.80786C23.0488 8.80786 16.467 15.3895 16.467 23.5085V26.5026C16.467 32.6185 19.7769 38.2554 25.1175 41.2354L25.9997 41.7276C28.1782 42.9432 30.6664 43.3581 33.0558 42.9779C31.8065 42.7789 30.5834 42.3629 29.445 41.7276Z" fill="#FAB684"/>
<path d="M42.7069 39.5537L50.1319 46.9787C50.87 47.7169 52.0667 47.7169 52.8048 46.9787C53.5429 46.2406 53.5429 45.044 52.8048 44.3059L45.3798 36.8809L42.7069 39.5537Z" fill="#918291"/>
<path d="M45.3798 36.8809L44.9552 33.0593C44.7796 31.4785 43.2045 30.4515 41.6871 30.9283C39.3355 31.6674 37.4935 33.5093 36.7545 35.8609C36.2776 37.3781 37.3047 38.9534 38.8855 39.129L42.7071 39.5536L45.3798 36.8809Z" fill="#FE8187"/>
<path d="M39.1727 33.4427C39.3652 32.8303 39.6338 32.2537 39.9653 31.7209C38.4521 32.6626 37.301 34.1216 36.7543 35.8609C36.2775 37.3782 37.3046 38.9534 38.8853 39.1291L42.707 39.5537L45.1252 37.1354L41.3036 36.7108C39.723 36.5352 38.6958 34.9601 39.1727 33.4427Z" fill="#FF646F"/>
<path d="M51.6433 45.4672L44.2183 38.0422L42.7068 39.5537L50.1318 46.9787C50.8699 47.7169 52.0665 47.7169 52.8047 46.9787C53.0853 46.6981 53.2585 46.3512 53.3258 45.9884C52.7343 46.0981 52.1008 45.9247 51.6433 45.4672Z" fill="#7A6D79"/>
<path d="M10.012 42.3724C10.5145 42.2261 11.0583 42.0679 11.6048 41.9089C12.8382 41.55 12.8383 39.8025 11.6049 39.4436L10.0128 38.9804C9.42216 38.8085 8.96066 38.3474 8.78879 37.7569C8.64254 37.2544 8.48429 36.7106 8.32529 36.1641C7.96641 34.9307 6.21891 34.9306 5.86004 36.164L5.39666 37.7561C5.22479 38.3467 4.76366 38.8084 4.17304 38.9801C3.66116 39.1291 3.11929 39.2867 2.58029 39.4436C1.34691 39.8025 1.34691 41.55 2.58041 41.9089L4.17254 42.3722C4.76316 42.5441 5.22479 43.0052 5.39654 43.5959C5.54554 44.1077 5.70316 44.6496 5.86004 45.1887C6.21891 46.4221 7.96641 46.4221 8.32529 45.1886L8.78854 43.5965C8.96041 43.0057 9.42154 42.5442 10.012 42.3724Z" fill="#FCE3A0"/>
<path d="M7.73942 42.3721L6.14729 41.9087C4.91392 41.5499 4.91379 39.8024 6.14717 39.4435C6.68617 39.2866 7.22804 39.129 7.73992 38.98C8.24954 38.8316 8.66179 38.467 8.87592 37.9904C8.84204 37.9149 8.81217 37.8372 8.78867 37.7566C8.64242 37.2541 8.48417 36.7104 8.32517 36.1639C7.96629 34.9305 6.21879 34.9304 5.85992 36.1637L5.39654 37.7559C5.22467 38.3465 4.76354 38.8081 4.17292 38.9799C3.66104 39.1289 3.11917 39.2865 2.58017 39.4434C1.34679 39.8022 1.34679 41.5497 2.58029 41.9086L4.17242 42.372C4.76304 42.5439 5.22467 43.005 5.39642 43.5956C5.54542 44.1075 5.70304 44.6494 5.85992 45.1885C6.21879 46.4219 7.96629 46.4219 8.32517 45.1884L8.78854 43.5962C8.81204 43.5154 8.84217 43.4375 8.87617 43.3617C8.66204 42.8851 8.24929 42.5205 7.73942 42.3721Z" fill="#F7BD61"/>
<path d="M59.8271 14.6714C60.3296 14.5252 60.8734 14.3669 61.4199 14.2079C62.6532 13.8491 62.6534 12.1016 61.42 11.7427L59.8279 11.2794C59.2372 11.1076 58.7757 10.6464 58.6039 10.0559C58.4576 9.55343 58.2994 9.00968 58.1404 8.46318C57.7815 7.2298 56.034 7.22968 55.6751 8.46305L55.2117 10.0552C55.0399 10.6458 54.5787 11.1074 53.9881 11.2792C53.4762 11.4282 52.9344 11.5858 52.3954 11.7427C51.162 12.1016 51.162 13.8491 52.3955 14.2079L53.9876 14.6713C54.5782 14.8432 55.0399 15.3043 55.2116 15.8949C55.3606 16.4068 55.5182 16.9487 55.6751 17.4878C56.034 18.7212 57.7815 18.7212 58.1404 17.4877L58.6036 15.8956C58.7755 15.3049 59.2366 14.8433 59.8271 14.6714Z" fill="#FCE3A0"/>
<path d="M57.5544 14.6712L55.9622 14.2078C54.7289 13.8489 54.7287 12.1014 55.9621 11.7426C56.5011 11.5857 57.043 11.4281 57.5549 11.2791C58.0645 11.1307 58.4767 10.7661 58.6909 10.2894C58.657 10.2139 58.6271 10.1363 58.6036 10.0557C58.4574 9.55318 58.2991 9.00944 58.1401 8.46294C57.7812 7.22956 56.0337 7.22944 55.6749 8.46281L55.2115 10.0549C55.0396 10.6456 54.5785 11.1072 53.9879 11.2789C53.476 11.4279 52.9341 11.5856 52.3951 11.7424C51.1617 12.1013 51.1617 13.8488 52.3952 14.2077L53.9874 14.6711C54.578 14.8429 55.0396 15.3041 55.2114 15.8947C55.3604 16.4066 55.518 16.9484 55.6749 17.4876C56.0337 18.7209 57.7812 18.7209 58.1401 17.4874L58.6035 15.8953C58.627 15.8144 58.6571 15.7366 58.6911 15.6608C58.477 15.1843 58.0642 14.8196 57.5544 14.6712Z" fill="#F7BD61"/>
<path d="M26.198 24.7823L25.922 24.9642C24.7994 25.704 23.3485 25.704 22.2258 24.9642L21.9498 24.7823C21.5177 24.4975 20.9362 24.6168 20.651 25.049C20.3662 25.4814 20.4855 26.0628 20.9179 26.3478L21.1939 26.5298C22.0688 27.1063 23.0713 27.3945 24.0739 27.3945C25.0765 27.3945 26.0792 27.1062 26.9539 26.5297L27.2299 26.3478C27.6622 26.0629 27.7817 25.4814 27.4968 25.049C27.2117 24.6169 26.6303 24.4973 26.198 24.7823Z" fill="#FAB684"/>
<path d="M41.1412 26.5294L41.4172 26.3475C41.8494 26.0627 41.9689 25.4812 41.684 25.0488C41.399 24.6167 40.8175 24.497 40.3853 24.782L40.1093 24.9639C38.9867 25.7038 37.5358 25.7038 36.413 24.9639L36.137 24.782C35.7049 24.4973 35.1234 24.6165 34.8383 25.0488C34.5534 25.4812 34.6728 26.0625 35.1052 26.3475L35.3812 26.5295C36.256 27.106 37.2585 27.3943 38.2612 27.3943C39.2638 27.3943 40.2664 27.106 41.1412 26.5294Z" fill="#FAB684"/>
<path d="M34.0475 36.1559L34.3235 35.974C34.7558 35.6891 34.8753 35.1076 34.5904 34.6753C34.3054 34.2431 33.7239 34.1235 33.2917 34.4085L33.0157 34.5904C31.893 35.3303 30.4422 35.3303 29.3194 34.5904L29.0434 34.4085C28.6113 34.1238 28.0298 34.243 27.7447 34.6753C27.4598 35.1076 27.5792 35.689 28.0115 35.974L28.2875 36.156C29.1624 36.7325 30.1649 37.0208 31.1675 37.0208C32.1702 37.0208 33.1728 36.7324 34.0475 36.1559Z" fill="#FAB684"/>
</svg>
