<svg width="65" height="64" viewBox="0 0 65 64" fill="none" xmlns="http://www.w3.org/2000/svg">
<path d="M4.09424 5.13257H0.935867V13.3737H4.09424V5.13257Z" fill="#FF6137"/>
<path d="M8.51437 17.5312V32.5952C8.51437 34.2401 9.84775 35.5735 11.4926 35.5735C13.1375 35.5735 14.4709 34.2401 14.4709 32.5952V28.152C14.4709 26.609 15.7216 25.3582 17.2646 25.3582C18.8076 25.3582 20.0584 26.6091 20.0584 28.152V30.2951C20.0584 31.9939 21.4354 33.371 23.1342 33.371C24.833 33.371 26.2101 31.994 26.2101 30.2951V17.5312H8.51437Z" fill="#FF434D"/>
<path d="M26.2108 17.5317H8.51437V20.5267H26.2108V17.5317Z" fill="#DD3646"/>
<path d="M31.8334 41.4999V31.6082C31.8334 26 31.3334 26.5 36.3334 26.4999C38.8334 26.4999 51.3334 26.4998 59.3334 26.4999C63.8334 26.5 63.3334 26.8078 63.3334 22.4999C63.3334 18.192 63.3334 15.6666 63.3334 12.4999C63.3334 8.76054 63.6709 8.99991 60.3334 8.99991C57.9334 8.99991 57.6668 8.99991 57.8334 8.99991" stroke="#546F7A" stroke-width="3"/>
<path d="M56.1956 17.4859H5.96613C4.93238 17.4859 4.09425 16.6478 4.09425 15.614V2.89165C4.09425 1.8579 4.93238 1.01978 5.96613 1.01978H56.1958C57.2295 1.01978 58.0676 1.8579 58.0676 2.89165V15.614C58.0675 16.648 57.2294 17.4859 56.1956 17.4859Z" fill="#FFD039"/>
<path d="M56.1956 14.3663H5.96613C4.93238 14.3663 4.09425 13.5281 4.09425 12.4944V15.6141C4.09425 16.6479 4.93238 17.486 5.96613 17.486H56.1958C57.2295 17.486 58.0676 16.6479 58.0676 15.6141V12.4945C58.0675 13.5284 57.2294 14.3663 56.1956 14.3663Z" fill="#FFAE47"/>
<path d="M32.0964 62.9802C29.9248 62.9802 28.1645 61.2198 28.1645 59.0483V39.147H36.0284V59.0483C36.0283 61.2198 34.268 62.9802 32.0964 62.9802Z" fill="#546F7A"/>
<path d="M32.9085 39.147V59.0483C32.9085 60.6655 31.9319 62.0541 30.5365 62.658C31.0149 62.865 31.542 62.9802 32.0964 62.9802C34.268 62.9802 36.0282 61.2198 36.0282 59.0483V39.147H32.9085Z" fill="#475D63"/>
<path d="M39.9141 48.3436L42.1916 49.3643C43.1349 49.7871 43.8896 50.5418 44.3124 51.4851L45.3331 53.7626L46.3539 51.4851C46.7766 50.5418 47.5314 49.7871 48.4746 49.3643L50.7521 48.3436L48.4746 47.3228C47.5314 46.9001 46.7766 46.1453 46.3539 45.2021L45.3331 42.9246L44.3124 45.2021C43.8896 46.1453 43.1349 46.9001 42.1916 47.3228L39.9141 48.3436Z" fill="#FFD039"/>
<path d="M52.1492 33.2437L54.4267 34.2645C55.37 34.6872 56.1247 35.442 56.5475 36.3852L57.5682 38.6627L58.589 36.3852C59.0117 35.442 59.7665 34.6872 60.7097 34.2645L62.9872 33.2437L60.7097 32.223C59.7665 31.8002 59.0117 31.0455 58.589 30.1022L57.5682 27.8247L56.5475 30.1022C56.1249 31.0453 55.37 31.8002 54.4267 32.223L52.1492 33.2437Z" fill="#FFD039"/>
<path d="M16.5786 47.4485C16.5786 50.2749 14.2875 52.566 11.4611 52.566C8.63475 52.566 6.34363 50.2749 6.34363 47.4485C6.34363 44.6222 11.4611 38.7227 11.4611 38.7227C11.4611 38.7227 16.5786 44.6222 16.5786 47.4485Z" fill="#FF434D"/>
<path d="M11.4611 38.7227C11.4611 38.7227 10.7727 39.5164 9.90125 40.6605C11.4066 42.6365 13.4589 45.6588 13.4589 47.4485C13.4589 49.7308 11.9645 51.6633 9.90125 52.323C10.3931 52.4803 10.917 52.566 11.4611 52.566C14.2875 52.566 16.5786 50.2749 16.5786 47.4485C16.5786 44.6222 11.4611 38.7227 11.4611 38.7227Z" fill="#DD3646"/>
</svg>
